<svg width="20" height="20" viewBox="0 0 20 20" fill="none" xmlns="http://www.w3.org/2000/svg">
<g clip-path="url(#clip0_21_94)">
<path d="M16.6667 3.3335H3.33341C2.41675 3.3335 1.67508 4.0835 1.67508 5.00016L1.66675 15.0002C1.66675 15.9168 2.41675 16.6668 3.33341 16.6668H16.6667C17.5834 16.6668 18.3334 15.9168 18.3334 15.0002V5.00016C18.3334 4.0835 17.5834 3.3335 16.6667 3.3335ZM15.8334 15.0002H4.16675C3.70841 15.0002 3.33341 14.6252 3.33341 14.1668V6.66683L9.11675 10.2835C9.65841 10.6252 10.3417 10.6252 10.8834 10.2835L16.6667 6.66683V14.1668C16.6667 14.6252 16.2917 15.0002 15.8334 15.0002ZM10.0001 9.16683L3.33341 5.00016H16.6667L10.0001 9.16683Z" fill="black"/>
</g>
<defs>
<clipPath id="clip0_21_94">
<rect width="20" height="20" fill="white"/>
</clipPath>
</defs>
</svg>
